# File created by Blade
# Date/Time:  Tue Jan 27 19:14:06 2015
# Frame Rate: 120.000 fps
#------------------------------------------------------
:FULLY-SPECIFIED
:DEGREES
2817
root 4.057267 32.398880 1.313771 -2.911496 15.081392 2.272955
Spine -1.642568 6.892702 -1.655309
Head 14.943634 -19.962425 -6.382795
LeftShoulder -6.640684 -7.891563 21.855466
LeftArm -5.519344 36.327076 -102.820940
LeftForeArm 5.019015 0.000000 11.319435
LeftHand 10.068349 -0.000000 -6.761806
LeftHandThumb1 -26.253704 0.000000 33.147579
RightShoulder -13.442302 13.237579 -62.481413
RightArm 35.997863 51.666656 31.109816
RightForeArm 27.109822 -0.000000 94.272470
RightHand 27.852323 -0.000000 -8.019684
RightHandThumb1 -24.326973 -0.000000 -32.862282
LeftUpLeg 8.654239 -8.491480 -1.919211
LeftLeg 1.897908 -0.000000 -0.000000
LeftFoot -12.545852 5.374268 -21.382948
LeftToeBase 18.949735 -0.000000 -0.000000
RightUpLeg 12.466785 -5.068670 2.522550
RightLeg -2.081083 -0.000000 0.000000
RightFoot -15.713031 -21.613975 16.945237
RightToeBase 11.738596 -0.000000 -0.000000
2818
root 4.049589 32.399015 1.313420 -2.957216 15.076998 2.248399
Spine -1.652031 6.820344 -1.657677
Head 15.041495 -19.929907 -6.503006
LeftShoulder -6.675627 -7.863187 21.819034
LeftArm -5.533513 36.264576 -102.820860
LeftForeArm 5.032377 -0.000000 11.283288
LeftHand 10.011922 -0.000000 -6.590774
LeftHandThumb1 -26.253704 0.000000 33.147579
RightShoulder -13.384478 13.054490 -62.488285
RightArm 35.168158 50.259190 29.459495
RightForeArm 27.259030 -0.000000 93.757059
RightHand 28.023743 -0.000000 -6.625450
RightHandThumb1 -24.326973 -0.000000 -32.862282
LeftUpLeg 8.675442 -8.401647 -1.866138
LeftLeg 1.921424 -0.000000 -0.000000
LeftFoot -12.527789 5.247827 -21.421935
LeftToeBase 18.917404 -0.000000 -0.000000
RightUpLeg 12.494092 -5.044400 2.562718
RightLeg -2.069553 -0.000000 0.000000
RightFoot -15.702770 -21.645117 16.943657
RightToeBase 11.744817 -0.000000 -0.000000
2819
root 4.043172 32.399202 1.312000 -2.998009 15.058458 2.242162
Spine -1.650223 6.754272 -1.679614
Head 15.062822 -19.849634 -6.534123
LeftShoulder -6.719163 -7.878971 21.788705
LeftArm -5.574364 36.163415 -102.838847
LeftForeArm 5.136349 -0.000000 11.211740
LeftHand 10.038060 -0.000000 -6.513134
LeftHandThumb1 -26.253704 0.000000 33.147579
RightShoulder -13.359286 12.986000 -62.518346
RightArm 34.409973 48.706252 27.882808
RightForeArm 27.139411 -0.000000 93.284031
RightHand 28.006703 -0.000000 -6.418597
RightHandThumb1 -24.326973 -0.000000 -32.862282
LeftUpLeg 8.701751 -8.371590 -1.849724
LeftLeg 1.938504 -0.000000 -0.000000
LeftFoot -12.525141 5.218370 -21.451268
LeftToeBase 18.989993 -0.000000 -0.000000
RightUpLeg 12.517836 -5.038535 2.575771
RightLeg -2.052653 -0.000000 0.000000
RightFoot -15.717484 -21.636797 16.955089
RightToeBase 11.814770 -0.000000 -0.000000
2820
root 4.037350 32.399584 1.309789 -3.037879 15.039707 2.242626
Spine -1.634613 6.699662 -1.708314
Head 15.090990 -19.731133 -6.598522
LeftShoulder -6.769766 -7.915367 21.763247
LeftArm -5.626098 36.123723 -102.874162
LeftForeArm 5.230518 0.000000 11.138757
LeftHand 10.016925 -0.000000 -6.672421
LeftHandThumb1 -26.253704 0.000000 33.147579
RightShoulder -13.346687 12.920016 -62.542151
RightArm 33.749819 47.152424 26.382415
RightForeArm 26.730482 -0.000000 92.880714
RightHand 27.770449 -0.000000 -7.144453
RightHandThumb1 -24.326973 -0.000000 -32.862282
LeftUpLeg 8.732367 -8.390022 -1.852646
LeftLeg 1.952238 -0.000000 -0.000000
LeftFoot -12.542509 5.254435 -21.467417
LeftToeBase 18.891809 -0.000000 -0.000000
RightUpLeg 12.542605 -5.008337 2.587988
RightLeg -2.043269 -0.000000 0.000000
RightFoot -15.713593 -21.678863 16.925128
RightToeBase 11.815108 -0.000000 -0.000000
2821
root 4.029889 32.400352 1.307064 -3.070908 15.005011 2.238795
Spine -1.632288 6.671519 -1.739513
Head 15.086539 -19.651881 -6.619968
LeftShoulder -6.793140 -7.946814 21.739452
LeftArm -5.670619 36.143436 -102.916730
LeftForeArm 5.018541 -0.000000 11.060300
LeftHand 10.205086 -0.000000 -7.156394
LeftHandThumb1 -26.253704 0.000000 33.147579
RightShoulder -13.395940 13.050818 -62.611943
RightArm 33.237675 45.310911 24.986003
RightForeArm 26.344321 0.000000 92.390241
RightHand 27.840015 -0.000000 -7.381070
RightHandThumb1 -24.326973 -0.000000 -32.862282
LeftUpLeg 8.756429 -8.389960 -1.843487
LeftLeg 1.960962 -0.000000 -0.000000
LeftFoot -12.545812 5.282121 -21.475252
LeftToeBase 18.901088 -0.000000 -0.000000
RightUpLeg 12.545832 -5.006044 2.599207
RightLeg -2.011854 -0.000000 0.000000
RightFoot -15.712653 -21.663097 16.916818
RightToeBase 11.829245 -0.000000 -0.000000
2822
root 4.022402 32.399729 1.304518 -3.109181 14.960544 2.226971
Spine -1.623643 6.645050 -1.760723
Head 15.058952 -19.604711 -6.679968
LeftShoulder -6.838055 -7.965813 21.728659
LeftArm -5.652512 36.082136 -102.924950
LeftForeArm 5.240911 -0.000000 10.921942
LeftHand 10.165166 -0.000000 -7.123821
LeftHandThumb1 -26.253704 0.000000 33.147579
RightShoulder -13.417675 13.038551 -62.658850
RightArm 32.866849 43.646279 23.746527
RightForeArm 26.223534 -0.000000 91.893861
RightHand 27.888916 0.000000 -7.492997
RightHandThumb1 -24.326973 -0.000000 -32.862282
LeftUpLeg 8.775159 -8.328095 -1.820261
LeftLeg 1.989973 -0.000000 -0.000000
LeftFoot -12.569963 5.261024 -21.467604
LeftToeBase 18.954492 -0.000000 -0.000000
RightUpLeg 12.557499 -4.992942 2.618989
RightLeg -1.992600 -0.000000 0.000000
RightFoot -15.692274 -21.649718 16.887561
RightToeBase 11.752015 -0.000000 -0.000000
2823
root 4.015198 32.399925 1.301735 -3.141635 14.920399 2.221349
Spine -1.612135 6.618871 -1.787697
Head 15.084800 -19.571377 -6.703580
LeftShoulder -6.895964 -7.967593 21.707413
LeftArm -5.640751 36.146208 -102.939304
LeftForeArm 5.174680 -0.000000 10.840055
LeftHand 10.159634 -0.000000 -7.018981
LeftHandThumb1 -26.253704 0.000000 33.147579
RightShoulder -13.418483 12.934425 -62.672270
RightArm 32.615292 42.094592 22.617502
RightForeArm 26.219600 -0.000000 91.453387
RightHand 27.862492 -0.000000 -7.718826
RightHandThumb1 -24.326973 -0.000000 -32.862282
LeftUpLeg 8.782093 -8.316614 -1.812871
LeftLeg 2.043730 -0.000000 -0.000000
LeftFoot -12.614989 5.258520 -21.490431
LeftToeBase 19.070059 -0.000000 -0.000000
RightUpLeg 12.566676 -5.003837 2.627202
RightLeg -1.974238 -0.000000 0.000000
RightFoot -15.683287 -21.616358 16.860610
RightToeBase 11.862197 -0.000000 -0.000000
2824
root 4.008060 32.400786 1.299123 -3.170934 14.864390 2.222752
Spine -1.616866 6.618694 -1.825123
Head 15.056003 -19.541702 -6.672917
LeftShoulder -6.929474 -7.938226 21.680762
LeftArm -5.593946 36.216623 -102.930342
LeftForeArm 5.188720 -0.000000 10.750381
LeftHand 10.136141 -0.000000 -6.975563
LeftHandThumb1 -26.253704 0.000000 33.147579
RightShoulder -13.349274 12.841597 -62.701386
RightArm 32.331426 40.647477 21.609769
RightForeArm 26.423191 0.000000 91.146999
RightHand 27.550696 -0.000000 -7.136991
RightHandThumb1 -24.326973 -0.000000 -32.862282
LeftUpLeg 8.806218 -8.275565 -1.810412
LeftLeg 2.037457 -0.000000 -0.000000
LeftFoot -12.628647 5.363714 -21.312238
LeftToeBase 19.145556 -0.000000 -0.000000
RightUpLeg 12.575705 -4.977296 2.635443
RightLeg -1.960696 -0.000000 0.000000
RightFoot -15.669845 -21.608151 16.827140
RightToeBase 11.830981 -0.000000 -0.000000
2825
root 4.000809 32.401186 1.295642 -3.194427 14.815379 2.227181
Spine -1.624698 6.627656 -1.883566
Head 14.976749 -19.551064 -6.588205
LeftShoulder -6.943973 -7.940006 21.671146
LeftArm -5.577259 36.229011 -102.940336
LeftForeArm 5.252688 -0.000000 10.681659
LeftHand 10.077722 -0.000000 -7.060334
LeftHandThumb1 -26.253704 0.000000 33.147579
RightShoulder -13.311643 12.774334 -62.716233
RightArm 32.187499 39.173119 20.711283
RightForeArm 26.563928 -0.000000 90.824257
RightHand 27.358855 -0.000000 -6.504621
RightHandThumb1 -24.326973 -0.000000 -32.862282
LeftUpLeg 8.811862 -8.257551 -1.816028
LeftLeg 2.076085 -0.000000 -0.000000
LeftFoot -12.623568 5.389576 -21.416133
LeftToeBase 18.956028 -0.000000 -0.000000
RightUpLeg 12.580050 -4.985375 2.630994
RightLeg -1.949677 -0.000000 0.000000
RightFoot -15.646573 -21.557319 16.809465
RightToeBase 11.780308 -0.000000 -0.000000
2826
root 3.994004 32.402003 1.291852 -3.220770 14.750850 2.225508
Spine -1.622856 6.655551 -1.930939
Head 14.917394 -19.601773 -6.549756
LeftShoulder -6.969716 -7.937447 21.652389
LeftArm -5.547370 36.232450 -102.940538
LeftForeArm 5.332252 -0.000000 10.619547
LeftHand 10.047086 -0.000000 -6.977823
LeftHandThumb1 -26.253704 0.000000 33.147579
RightShoulder -13.271835 12.715721 -62.722892
RightArm 32.092339 37.693944 19.870155
RightForeArm 26.468501 -0.000000 90.549850
RightHand 27.329932 0.000000 -6.452806
RightHandThumb1 -24.326973 -0.000000 -32.862282
LeftUpLeg 8.824936 -8.222720 -1.816554
LeftLeg 2.100726 -0.000000 -0.000000
LeftFoot -12.641113 5.453279 -21.397933
LeftToeBase 18.852536 -0.000000 -0.000000
RightUpLeg 12.582477 -4.999155 2.632037
RightLeg -1.937573 -0.000000 0.000000
RightFoot -15.606827 -21.506384 16.759377
RightToeBase 11.800622 -0.000000 -0.000000
2827
root 3.985707 32.402512 1.287457 -3.242543 14.696881 2.212367
Spine -1.611251 6.656308 -1.972225
Head 14.779552 -19.635216 -6.470525
LeftShoulder -7.025299 -7.960284 21.644569
LeftArm -5.564737 36.216791 -102.957234
LeftForeArm 5.395408 -0.000000 10.604231
LeftHand 10.047938 -0.000000 -6.944269
LeftHandThumb1 -26.253704 0.000000 33.147579
RightShoulder -13.259280 12.614030 -62.706658
RightArm 32.083473 36.339993 19.111575
RightForeArm 26.230914 0.000000 90.349902
RightHand 27.296140 0.000000 -6.258586
RightHandThumb1 -24.326973 -0.000000 -32.862282
LeftUpLeg 8.831365 -8.198580 -1.794397
LeftLeg 2.117061 -0.000000 -0.000000
LeftFoot -12.661092 5.464149 -21.416235
LeftToeBase 18.900474 -0.000000 -0.000000
RightUpLeg 12.579367 -4.983880 2.653640
RightLeg -1.931224 -0.000000 0.000000
RightFoot -15.578128 -21.488045 16.726681
RightToeBase 11.778176 -0.000000 -0.000000
2828
root 3.978983 32.403415 1.282784 -3.267106 14.661251 2.209054
Spine -1.607170 6.649639 -2.029559
Head 14.695879 -19.697978 -6.399485
LeftShoulder -7.036330 -7.968960 21.636433
LeftArm -5.577690 36.173104 -102.977922
LeftForeArm 5.219672 -0.000000 10.598132
LeftHand 10.115783 0.000000 -7.287475
LeftHandThumb1 -26.253704 0.000000 33.147579
RightShoulder -13.217574 12.551545 -62.698253
RightArm 32.111259 35.021677 18.524155
RightForeArm 25.831900 -0.000000 90.273834
RightHand 27.118016 -0.000000 -6.514258
RightHandThumb1 -24.326973 -0.000000 -32.862282
LeftUpLeg 8.831716 -8.151213 -1.784542
LeftLeg 2.149733 -0.000000 -0.000000
LeftFoot -12.670524 5.481493 -21.383885
LeftToeBase 18.884897 -0.000000 -0.000000
RightUpLeg 12.595272 -4.978047 2.662427
RightLeg -1.949149 -0.000000 0.000000
RightFoot -15.539969 -21.475732 16.707438
RightToeBase 11.758963 -0.000000 -0.000000
